<svg width="275" height="87" viewBox="0 0 275 87" fill="none" xmlns="http://www.w3.org/2000/svg">
<path fill-rule="evenodd" clip-rule="evenodd" d="M8.02793 4.19256C12.3519 2.00419 17.6763 0.5 23.4021 0.5C28.8354 0.5 34.3459 1.9354 38.6836 4.13072C39.4497 4.51844 39.7564 5.45377 39.3687 6.21986C38.981 6.98594 38.0456 7.29267 37.2795 6.90495C33.3589 4.9207 28.3276 3.60929 23.4021 3.60929C18.2128 3.60929 13.3664 4.9756 9.43197 6.9668C8.66588 7.35451 7.73055 7.04778 7.34283 6.2817C6.95512 5.51562 7.26185 4.58028 8.02793 4.19256ZM10.7316 8.93285C14.4843 7.18109 19.3046 6.25137 23.3842 6.25137C27.4703 6.25137 32.1706 7.18352 35.9181 8.93285C40.0907 10.8806 43.5865 13.7098 45.9841 17.0398C46.4858 17.7366 46.3276 18.7082 45.6308 19.2099C44.934 19.7116 43.9625 19.5534 43.4608 18.8566C41.4057 16.0023 38.3461 13.4976 34.6029 11.7503C31.3109 10.2136 27.0668 9.36066 23.3842 9.36066C19.6952 9.36066 15.3335 10.216 12.0468 11.7503C8.46502 13.4222 5.25532 16.1123 3.25412 18.9137C2.75503 19.6124 1.78407 19.7742 1.08541 19.2751C0.386759 18.776 0.22498 17.805 0.724068 17.1064C3.05185 13.8478 6.68917 10.8198 10.7316 8.93285ZM23.1862 11.8791C31.1938 11.8021 38.1812 15.9257 41.7274 21.8498C43.5886 24.9592 44.2362 28.0851 44.2362 30.7497C44.2362 35.2874 40.0934 38.1175 36.3736 38.1175C34.5107 38.1175 32.5315 37.6192 30.9629 36.4231C29.3465 35.1907 28.2783 33.2969 28.2025 30.7968C28.1572 29.2995 27.4724 28.308 26.5325 27.644C25.541 26.9434 24.258 26.6148 23.2011 26.6148C20.3261 26.6148 18.3241 28.73 18.3241 30.7497C18.3241 32.4336 18.8528 34.798 19.5501 36.3631C20.2568 37.9493 21.5246 39.7961 22.7601 40.9142L22.7748 40.9275L22.7892 40.9413C24.8119 42.8681 27.3409 44.5845 31.0498 45.4292C31.8869 45.6199 32.411 46.4531 32.2203 47.2903C32.0297 48.1274 31.1964 48.6515 30.3593 48.4608C25.9966 47.4672 22.9887 45.4223 20.6587 43.206C19.0579 41.752 17.5605 39.5374 16.71 37.6285C15.8474 35.6924 15.2149 32.8986 15.2149 30.7497C15.2149 26.7087 18.9297 23.5055 23.2011 23.5055C24.8035 23.5055 26.7364 23.9809 28.3268 25.1046C29.9689 26.2649 31.2321 28.1182 31.3104 30.7026C31.3583 32.284 31.9908 33.2969 32.8482 33.9506C33.7532 34.6407 35.0208 35.0082 36.3736 35.0082C38.8424 35.0082 41.127 33.1383 41.127 30.7497C41.127 28.5905 40.6039 26.0268 39.0595 23.4467C36.096 18.496 30.1505 14.9216 23.2161 14.9883C17.1989 15.0461 10.8004 17.8879 7.53029 23.3816C6.13642 25.7233 5.4372 28.3993 5.52199 31.1973C5.63868 35.048 6.20004 36.6641 7.21582 39.353C7.51926 40.1562 7.11411 41.0533 6.31091 41.3567C5.50771 41.6601 4.6106 41.255 4.30717 40.4518C3.2203 37.5748 2.54481 35.6041 2.41413 31.2915C2.31151 27.9052 3.16024 24.6443 4.8585 21.7913C8.80342 15.1638 16.3401 11.945 23.1862 11.8791ZM8.84507 30.4877C8.85439 23.32 15.7522 17.6923 23.2011 17.6923C30.6089 17.6923 37.8046 22.7932 37.8046 30.9352C37.8046 31.7938 37.1086 32.4898 36.25 32.4898C35.3914 32.4898 34.6953 31.7938 34.6953 30.9352C34.6953 24.977 29.3988 20.8016 23.2011 20.8016C17.0497 20.8016 11.9543 25.4321 11.9543 30.5023V30.5165L11.9541 30.5307C11.9023 33.3603 12.3528 36.06 13.8256 38.9489C15.3283 41.8965 17.1348 43.8989 18.7862 45.3526C19.4307 45.9199 19.4932 46.9023 18.9259 47.5468C18.3586 48.1913 17.3762 48.2538 16.7318 47.6865C14.844 46.0248 12.7686 43.7215 11.0555 40.3611C9.31491 36.9469 8.78739 33.7304 8.84507 30.4877ZM23.2011 29.195C24.0598 29.195 24.7558 29.8911 24.7558 30.7497C24.7558 32.4286 25.2163 34.0195 26.0934 35.5379C26.9374 36.9991 28.0356 38.053 29.5422 38.9664C31.7351 40.1625 33.2403 40.5713 35.53 40.5127L35.5407 40.5125L35.5513 40.5123C36.4556 40.5017 37.5163 40.4269 38.3533 40.281C39.1991 40.1334 40.0044 40.6995 40.1519 41.5454C40.2994 42.3912 39.7333 43.1965 38.8875 43.344C37.8404 43.5266 36.6087 43.6089 35.5987 43.6213C32.6771 43.6944 30.6327 43.1073 28.0208 41.6782L27.9921 41.6625L27.9641 41.6456C26.0627 40.4989 24.5508 39.0836 23.401 37.0931C22.2792 35.151 21.6465 33.0287 21.6465 30.7497C21.6465 29.8911 22.3425 29.195 23.2011 29.195Z" fill="white"/>
<path d="M61.8945 23.1074H71.2934V26.2885H61.8945V36.9165H57.7012V11.9733H73.0286L72.5948 15.1545H61.8945V23.1074Z" fill="white"/>
<path d="M84.1847 8.4668C84.9559 8.4668 85.5824 8.71984 86.0644 9.22594C86.5705 9.70793 86.8236 10.3104 86.8236 11.0334C86.8236 11.7564 86.5705 12.3589 86.0644 12.8409C85.5824 13.3229 84.9559 13.5639 84.1847 13.5639C83.3894 13.5639 82.7507 13.3229 82.2687 12.8409C81.7867 12.3589 81.5457 11.7564 81.5457 11.0334C81.5457 10.2863 81.7867 9.67178 82.2687 9.18979C82.7748 8.70779 83.4135 8.4668 84.1847 8.4668ZM86.9682 33.9522H92.1737V36.9165H77.2439V33.9522H82.9194V20.7938H77.4247V17.8295H86.9682V33.9522Z" fill="white"/>
<path d="M96.7867 17.8295H100.293L100.582 20.3238C101.378 19.3599 102.306 18.6248 103.366 18.1187C104.45 17.5885 105.583 17.3234 106.764 17.3234C108.523 17.3234 109.849 17.8175 110.74 18.8056C111.632 19.7936 112.078 21.1914 112.078 22.9989V36.9165H108.029V25.0233C108.029 23.8424 107.957 22.9387 107.812 22.3121C107.692 21.6614 107.439 21.1914 107.053 20.9022C106.668 20.5889 106.089 20.4323 105.318 20.4323C104.45 20.4323 103.619 20.6974 102.824 21.2276C102.053 21.7578 101.39 22.4205 100.835 23.2158V36.9165H96.7867V17.8295Z" fill="white"/>
<path d="M134.151 18.7694C133.452 19.0104 132.657 19.1791 131.765 19.2755C130.898 19.3478 129.849 19.384 128.62 19.384C129.777 19.9141 130.645 20.5769 131.223 21.3722C131.802 22.1675 132.091 23.1315 132.091 24.2641C132.091 25.5173 131.777 26.6259 131.151 27.5899C130.548 28.5539 129.681 29.313 128.548 29.8673C127.415 30.4216 126.078 30.6988 124.535 30.6988C123.451 30.6988 122.583 30.5903 121.933 30.3734C121.668 30.5662 121.463 30.8072 121.318 31.0964C121.174 31.3615 121.101 31.6507 121.101 31.964C121.101 32.928 121.884 33.41 123.451 33.41H126.777C128.126 33.41 129.331 33.6389 130.392 34.0968C131.452 34.5547 132.271 35.1933 132.85 36.0127C133.452 36.808 133.754 37.7118 133.754 38.724C133.754 40.6278 132.934 42.0979 131.295 43.1342C129.657 44.1946 127.295 44.7248 124.21 44.7248C122.065 44.7248 120.366 44.4958 119.113 44.0379C117.884 43.6041 117.004 42.9534 116.474 42.0859C115.968 41.2424 115.715 40.1458 115.715 38.7962H119.33C119.33 39.5192 119.462 40.0856 119.728 40.4953C120.017 40.9291 120.511 41.2424 121.21 41.4352C121.909 41.6521 122.921 41.7605 124.246 41.7605C126.174 41.7605 127.56 41.5195 128.403 41.0375C129.247 40.5796 129.669 39.8928 129.669 38.977C129.669 38.2058 129.331 37.6033 128.656 37.1695C128.006 36.7598 127.114 36.555 125.981 36.555H122.692C120.981 36.555 119.679 36.2055 118.788 35.5066C117.92 34.8078 117.486 33.9281 117.486 32.8677C117.486 32.217 117.667 31.5904 118.029 30.988C118.39 30.3855 118.908 29.8673 119.583 29.4335C118.45 28.831 117.619 28.108 117.089 27.2646C116.583 26.397 116.329 25.3366 116.329 24.0834C116.329 22.7579 116.667 21.5891 117.342 20.5769C118.016 19.5406 118.956 18.7453 120.161 18.191C121.366 17.6126 122.74 17.3234 124.282 17.3234C126.355 17.3475 127.994 17.2029 129.199 16.8896C130.428 16.5763 131.729 16.0823 133.103 15.4075L134.151 18.7694ZM124.319 20.1431C123.041 20.1431 122.077 20.5046 121.427 21.2276C120.776 21.9265 120.451 22.8784 120.451 24.0834C120.451 25.3125 120.776 26.2885 121.427 27.0115C122.101 27.7104 123.077 28.0598 124.355 28.0598C125.56 28.0598 126.475 27.7104 127.102 27.0115C127.729 26.3126 128.042 25.3125 128.042 24.0111C128.042 21.4324 126.801 20.1431 124.319 20.1431Z" fill="white"/>
<path d="M140.608 28.6744C140.728 30.5301 141.259 31.9278 142.198 32.8677C143.162 33.7835 144.367 34.2414 145.813 34.2414C146.705 34.2414 147.549 34.1089 148.344 33.8438C149.163 33.5546 149.995 33.1328 150.838 32.5785L152.573 35.0367C151.682 35.7838 150.633 36.3622 149.428 36.7719C148.223 37.1816 146.958 37.3864 145.633 37.3864C142.717 37.3864 140.451 36.4827 138.837 34.6752C137.222 32.8436 136.415 30.4096 136.415 27.373C136.415 25.4691 136.764 23.758 137.463 22.2398C138.162 20.6974 139.174 19.4924 140.499 18.6248C141.825 17.7572 143.367 17.3234 145.127 17.3234C147.657 17.3234 149.657 18.179 151.127 19.89C152.622 21.577 153.369 23.9026 153.369 26.8669C153.369 27.5899 153.333 28.1924 153.26 28.6744H140.608ZM145.163 20.3238C143.861 20.3238 142.801 20.7938 141.982 21.7337C141.162 22.6736 140.692 24.0713 140.572 25.927H149.428C149.38 24.1195 148.995 22.7338 148.272 21.7698C147.549 20.8058 146.512 20.3238 145.163 20.3238Z" fill="white"/>
<path d="M170.996 17.3596C171.984 17.3596 172.948 17.5162 173.887 17.8295L173.201 24.8787H170.309V20.9745C168.983 20.9986 167.826 21.5288 166.838 22.5651C165.874 23.6014 165.103 25.0594 164.525 26.9392V34.0245H168.357V36.9165H157.656V34.0245H160.476V20.7215H157.656V17.8295H163.549L164.272 22.2398C165.019 20.601 165.923 19.384 166.983 18.5887C168.067 17.7693 169.405 17.3596 170.996 17.3596Z" fill="white"/>
<path d="M187.032 17.3234C191.659 17.3234 193.972 20.6612 193.972 27.3368C193.972 30.3493 193.334 32.7834 192.057 34.6391C190.779 36.4706 188.96 37.3864 186.598 37.3864C184.598 37.3864 182.983 36.6875 181.754 35.2897V44.2548L177.705 44.7248V17.8295H181.212L181.465 20.2877C182.188 19.3237 183.019 18.5887 183.959 18.0826C184.923 17.5765 185.947 17.3234 187.032 17.3234ZM185.911 20.4323C185.068 20.4323 184.296 20.6853 183.598 21.1914C182.899 21.6975 182.284 22.3603 181.754 23.1797V32.1086C182.694 33.5305 183.947 34.2414 185.513 34.2414C186.911 34.2414 187.96 33.6871 188.659 32.5785C189.357 31.4699 189.707 29.7348 189.707 27.373C189.707 24.9389 189.394 23.1797 188.767 22.0952C188.14 20.9866 187.188 20.4323 185.911 20.4323Z" fill="white"/>
<path d="M211.455 17.3596C212.443 17.3596 213.407 17.5162 214.347 17.8295L213.66 24.8787H210.768V20.9745C209.442 20.9986 208.286 21.5288 207.298 22.5651C206.334 23.6014 205.562 25.0594 204.984 26.9392V34.0245H208.816V36.9165H198.116V34.0245H200.935V20.7215H198.116V17.8295H204.008L204.731 22.2398C205.478 20.601 206.382 19.384 207.442 18.5887C208.527 17.7693 209.864 17.3596 211.455 17.3596Z" fill="white"/>
<path d="M225.792 8.4668C226.563 8.4668 227.19 8.71984 227.672 9.22594C228.178 9.70793 228.431 10.3104 228.431 11.0334C228.431 11.7564 228.178 12.3589 227.672 12.8409C227.19 13.3229 226.563 13.5639 225.792 13.5639C224.997 13.5639 224.358 13.3229 223.876 12.8409C223.394 12.3589 223.153 11.7564 223.153 11.0334C223.153 10.2863 223.394 9.67178 223.876 9.18979C224.382 8.70779 225.021 8.4668 225.792 8.4668ZM228.576 33.9522H233.781V36.9165H218.851V33.9522H224.527V20.7938H219.032V17.8295H228.576V33.9522Z" fill="white"/>
<path d="M238.394 17.8295H241.901L242.19 20.3238C242.985 19.3599 243.913 18.6248 244.973 18.1187C246.058 17.5885 247.19 17.3234 248.371 17.3234C250.131 17.3234 251.456 17.8175 252.348 18.8056C253.239 19.7936 253.685 21.1914 253.685 22.9989V36.9165H249.637V25.0233C249.637 23.8424 249.564 22.9387 249.42 22.3121C249.299 21.6614 249.046 21.1914 248.661 20.9022C248.275 20.5889 247.697 20.4323 246.925 20.4323C246.058 20.4323 245.226 20.6974 244.431 21.2276C243.66 21.7578 242.997 22.4205 242.443 23.2158V36.9165H238.394V17.8295Z" fill="white"/>
<path d="M274.566 35.9043C273.843 36.3622 272.999 36.7237 272.035 36.9888C271.071 37.2539 270.059 37.3864 268.999 37.3864C266.83 37.3864 265.155 36.8321 263.974 35.7235C262.793 34.5909 262.202 33.0605 262.202 31.1325V20.7938H257.973V17.8295H262.202V13.5639L266.251 13.0939V17.8295H272.722L272.252 20.7938H266.251V31.0964C266.251 32.1327 266.516 32.9039 267.047 33.41C267.577 33.892 268.42 34.133 269.577 34.133C270.854 34.133 272.035 33.8317 273.12 33.2292L274.566 35.9043Z" fill="white"/>
<path d="M11.375 80.5H8.23295V70.3182H11.5142C12.5019 70.3182 13.3471 70.522 14.0497 70.9297C14.7524 71.334 15.291 71.9157 15.6655 72.6747C16.04 73.4304 16.2273 74.3352 16.2273 75.3892C16.2273 76.4498 16.0384 77.3629 15.6605 78.1286C15.2827 78.8909 14.7325 79.4775 14.0099 79.8885C13.2874 80.2962 12.4091 80.5 11.375 80.5ZM9.46591 79.4062H11.2955C12.1373 79.4062 12.835 79.2438 13.3885 78.919C13.942 78.5942 14.3546 78.1319 14.6264 77.532C14.8982 76.9321 15.0341 76.2178 15.0341 75.3892C15.0341 74.5672 14.8999 73.8596 14.6314 73.2663C14.3629 72.6697 13.9619 72.2124 13.4283 71.8942C12.8946 71.5727 12.2301 71.4119 11.4347 71.4119H9.46591V79.4062ZM21.4781 80.6591C20.7423 80.6591 20.1076 80.4967 19.5739 80.1719C19.0436 79.8438 18.6343 79.3864 18.346 78.7997C18.0609 78.2098 17.9184 77.5237 17.9184 76.7415C17.9184 75.9593 18.0609 75.2699 18.346 74.6733C18.6343 74.0734 19.0354 73.6061 19.5491 73.2713C20.0661 72.9332 20.6694 72.7642 21.3588 72.7642C21.7565 72.7642 22.1492 72.8305 22.537 72.9631C22.9248 73.0956 23.2778 73.3111 23.596 73.6094C23.9141 73.9044 24.1677 74.2955 24.3566 74.7827C24.5455 75.2699 24.64 75.8698 24.64 76.5824V77.0795H18.7536V76.0653H23.4468C23.4468 75.6345 23.3606 75.25 23.1883 74.9119C23.0193 74.5739 22.7773 74.3071 22.4624 74.1115C22.1509 73.916 21.783 73.8182 21.3588 73.8182C20.8914 73.8182 20.4871 73.9342 20.1457 74.1662C19.8076 74.3949 19.5474 74.6932 19.3651 75.0611C19.1829 75.429 19.0917 75.8234 19.0917 76.2443V76.9205C19.0917 77.4972 19.1911 77.986 19.39 78.3871C19.5922 78.7848 19.8722 79.0881 20.2302 79.2969C20.5882 79.5024 21.0041 79.6051 21.4781 79.6051C21.7863 79.6051 22.0647 79.562 22.3133 79.4759C22.5652 79.3864 22.7823 79.2538 22.9646 79.0781C23.1469 78.8991 23.2877 78.6771 23.3872 78.4119L24.5207 78.7301C24.4014 79.1146 24.2008 79.4527 23.9191 79.7443C23.6374 80.0327 23.2894 80.258 22.8751 80.4205C22.4608 80.5795 21.9951 80.6591 21.4781 80.6591ZM32.5767 72.8636L29.7528 80.5H28.5597L25.7358 72.8636H27.0085L29.1165 78.9489H29.196L31.304 72.8636H32.5767ZM34.2653 80.5V72.8636H35.4386V80.5H34.2653ZM34.8619 71.5909C34.6332 71.5909 34.436 71.513 34.2703 71.3572C34.1079 71.2015 34.0267 71.0142 34.0267 70.7955C34.0267 70.5767 34.1079 70.3894 34.2703 70.2337C34.436 70.0779 34.6332 70 34.8619 70C35.0906 70 35.2862 70.0779 35.4486 70.2337C35.6143 70.3894 35.6972 70.5767 35.6972 70.7955C35.6972 71.0142 35.6143 71.2015 35.4486 71.3572C35.2862 71.513 35.0906 71.5909 34.8619 71.5909ZM40.8299 80.6591C40.114 80.6591 39.4975 80.4901 38.9805 80.152C38.4634 79.8139 38.0657 79.3482 37.7873 78.755C37.5089 78.1617 37.3697 77.4839 37.3697 76.7216C37.3697 75.946 37.5122 75.2616 37.7972 74.6683C38.0856 74.0717 38.4866 73.6061 39.0003 73.2713C39.5174 72.9332 40.1206 72.7642 40.81 72.7642C41.3469 72.7642 41.8308 72.8636 42.2617 73.0625C42.6926 73.2614 43.0456 73.5398 43.3207 73.8977C43.5957 74.2557 43.7664 74.6733 43.8327 75.1506H42.6594C42.5699 74.8026 42.3711 74.4943 42.0628 74.2259C41.7579 73.9541 41.3469 73.8182 40.8299 73.8182C40.3725 73.8182 39.9715 73.9375 39.6268 74.1761C39.2854 74.4115 39.0186 74.7446 38.8263 75.1754C38.6374 75.603 38.543 76.1051 38.543 76.6818C38.543 77.2718 38.6358 77.7855 38.8214 78.223C39.0103 78.6605 39.2754 79.0002 39.6168 79.2422C39.9615 79.4841 40.3659 79.6051 40.8299 79.6051C41.1348 79.6051 41.4116 79.5521 41.6601 79.446C41.9087 79.34 42.1192 79.1875 42.2915 78.9886C42.4639 78.7898 42.5865 78.5511 42.6594 78.2727H43.8327C43.7664 78.7235 43.6024 79.1295 43.3405 79.4908C43.082 79.8487 42.739 80.1338 42.3114 80.3459C41.8872 80.5547 41.3933 80.6591 40.8299 80.6591ZM48.8896 80.6591C48.1538 80.6591 47.5191 80.4967 46.9855 80.1719C46.4552 79.8438 46.0459 79.3864 45.7575 78.7997C45.4725 78.2098 45.33 77.5237 45.33 76.7415C45.33 75.9593 45.4725 75.2699 45.7575 74.6733C46.0459 74.0734 46.4469 73.6061 46.9607 73.2713C47.4777 72.9332 48.0809 72.7642 48.7703 72.7642C49.168 72.7642 49.5608 72.8305 49.9486 72.9631C50.3364 73.0956 50.6893 73.3111 51.0075 73.6094C51.3257 73.9044 51.5793 74.2955 51.7682 74.7827C51.9571 75.2699 52.0516 75.8698 52.0516 76.5824V77.0795H46.1652V76.0653H50.8584C50.8584 75.6345 50.7722 75.25 50.5999 74.9119C50.4308 74.5739 50.1889 74.3071 49.874 74.1115C49.5625 73.916 49.1946 73.8182 48.7703 73.8182C48.303 73.8182 47.8986 73.9342 47.5572 74.1662C47.2192 74.3949 46.959 74.6932 46.7767 75.0611C46.5944 75.429 46.5033 75.8234 46.5033 76.2443V76.9205C46.5033 77.4972 46.6027 77.986 46.8016 78.3871C47.0037 78.7848 47.2838 79.0881 47.6418 79.2969C47.9997 79.5024 48.4157 79.6051 48.8896 79.6051C49.1979 79.6051 49.4763 79.562 49.7249 79.4759C49.9768 79.3864 50.1938 79.2538 50.3761 79.0781C50.5584 78.8991 50.6993 78.6771 50.7987 78.4119L51.9322 78.7301C51.8129 79.1146 51.6124 79.4527 51.3307 79.7443C51.049 80.0327 50.7009 80.258 50.2866 80.4205C49.8723 80.5795 49.4067 80.6591 48.8896 80.6591ZM58.0539 80.5V72.8636H59.2272V80.5H58.0539ZM58.6505 71.5909C58.4218 71.5909 58.2246 71.513 58.0588 71.3572C57.8964 71.2015 57.8152 71.0142 57.8152 70.7955C57.8152 70.5767 57.8964 70.3894 58.0588 70.2337C58.2246 70.0779 58.4218 70 58.6505 70C58.8791 70 59.0747 70.0779 59.2371 70.2337C59.4028 70.3894 59.4857 70.5767 59.4857 70.7955C59.4857 71.0142 59.4028 71.2015 59.2371 71.3572C59.0747 71.513 58.8791 71.5909 58.6505 71.5909ZM62.6894 75.9062V80.5H61.5161V72.8636H62.6497V74.0568H62.7491C62.9281 73.669 63.1998 73.3575 63.5644 73.1222C63.929 72.8835 64.3997 72.7642 64.9764 72.7642C65.4934 72.7642 65.9458 72.8703 66.3336 73.0824C66.7214 73.2912 67.023 73.6094 67.2384 74.0369C67.4539 74.4612 67.5616 74.9981 67.5616 75.6477V80.5H66.3883V75.7273C66.3883 75.1274 66.2325 74.66 65.921 74.3253C65.6094 73.9872 65.1818 73.8182 64.6383 73.8182C64.2638 73.8182 63.929 73.8994 63.634 74.0618C63.3424 74.2242 63.112 74.4612 62.943 74.7727C62.7739 75.0843 62.6894 75.4621 62.6894 75.9062ZM73.1666 72.8636V73.858H69.2092V72.8636H73.1666ZM70.3626 71.0341H71.5359V78.3125C71.5359 78.6439 71.584 78.8925 71.6801 79.0582C71.7795 79.2206 71.9055 79.33 72.0579 79.3864C72.2137 79.4394 72.3778 79.4659 72.5501 79.4659C72.6794 79.4659 72.7854 79.4593 72.8683 79.446C72.9512 79.4295 73.0175 79.4162 73.0672 79.4062L73.3058 80.4602C73.2263 80.4901 73.1152 80.5199 72.9727 80.5497C72.8302 80.5829 72.6496 80.5994 72.4308 80.5994C72.0994 80.5994 71.7746 80.5282 71.4564 80.3857C71.1415 80.2431 70.8797 80.026 70.6709 79.7344C70.4654 79.4427 70.3626 79.0748 70.3626 78.6307V71.0341ZM78.1912 80.6591C77.4554 80.6591 76.8207 80.4967 76.2871 80.1719C75.7568 79.8438 75.3474 79.3864 75.0591 78.7997C74.7741 78.2098 74.6315 77.5237 74.6315 76.7415C74.6315 75.9593 74.7741 75.2699 75.0591 74.6733C75.3474 74.0734 75.7485 73.6061 76.2622 73.2713C76.7793 72.9332 77.3825 72.7642 78.0719 72.7642C78.4696 72.7642 78.8624 72.8305 79.2501 72.9631C79.6379 73.0956 79.9909 73.3111 80.3091 73.6094C80.6273 73.9044 80.8808 74.2955 81.0697 74.7827C81.2587 75.2699 81.3531 75.8698 81.3531 76.5824V77.0795H75.4668V76.0653H80.1599C80.1599 75.6345 80.0738 75.25 79.9014 74.9119C79.7324 74.5739 79.4904 74.3071 79.1756 74.1115C78.864 73.916 78.4961 73.8182 78.0719 73.8182C77.6045 73.8182 77.2002 73.9342 76.8588 74.1662C76.5207 74.3949 76.2606 74.6932 76.0783 75.0611C75.896 75.429 75.8048 75.8234 75.8048 76.2443V76.9205C75.8048 77.4972 75.9043 77.986 76.1031 78.3871C76.3053 78.7848 76.5854 79.0881 76.9433 79.2969C77.3013 79.5024 77.7172 79.6051 78.1912 79.6051C78.4994 79.6051 78.7778 79.562 79.0264 79.4759C79.2783 79.3864 79.4954 79.2538 79.6777 79.0781C79.86 78.8991 80.0009 78.6771 80.1003 78.4119L81.2338 78.7301C81.1145 79.1146 80.914 79.4527 80.6322 79.7443C80.3505 80.0327 80.0025 80.258 79.5882 80.4205C79.1739 80.5795 78.7082 80.6591 78.1912 80.6591ZM84.4512 70.3182V80.5H83.2779V70.3182H84.4512ZM87.9135 70.3182V80.5H86.7402V70.3182H87.9135ZM90.2025 80.5V72.8636H91.3758V80.5H90.2025ZM90.799 71.5909C90.5704 71.5909 90.3731 71.513 90.2074 71.3572C90.045 71.2015 89.9638 71.0142 89.9638 70.7955C89.9638 70.5767 90.045 70.3894 90.2074 70.2337C90.3731 70.0779 90.5704 70 90.799 70C91.0277 70 91.2233 70.0779 91.3857 70.2337C91.5514 70.3894 91.6343 70.5767 91.6343 70.7955C91.6343 71.0142 91.5514 71.2015 91.3857 71.3572C91.2233 71.513 91.0277 71.5909 90.799 71.5909ZM96.7471 83.5227C96.1803 83.5227 95.6931 83.4498 95.2855 83.304C94.8778 83.1615 94.5381 82.9725 94.2663 82.7372C93.9978 82.5052 93.784 82.2566 93.6249 81.9915L94.5596 81.3352C94.6657 81.4744 94.7999 81.6335 94.9623 81.8125C95.1247 81.9948 95.3468 82.1522 95.6285 82.2848C95.9135 82.4207 96.2864 82.4886 96.7471 82.4886C97.3636 82.4886 97.8723 82.3395 98.2734 82.0412C98.6744 81.7429 98.8749 81.2756 98.8749 80.6392V79.0881H98.7755C98.6893 79.2273 98.5667 79.3996 98.4076 79.6051C98.2518 79.8073 98.0265 79.9879 97.7315 80.147C97.4398 80.3028 97.0454 80.3807 96.5482 80.3807C95.9318 80.3807 95.3783 80.2348 94.8877 79.9432C94.4005 79.6515 94.0144 79.2273 93.7294 78.6705C93.4476 78.1136 93.3068 77.4375 93.3068 76.642C93.3068 75.8598 93.4443 75.1787 93.7194 74.5987C93.9945 74.0154 94.3773 73.5646 94.8678 73.2464C95.3584 72.925 95.9251 72.7642 96.5681 72.7642C97.0653 72.7642 97.4597 72.8471 97.7514 73.0128C98.0464 73.1752 98.2717 73.3608 98.4275 73.5696C98.5866 73.7751 98.7092 73.9441 98.7954 74.0767H98.9147V72.8636H100.048V80.7188C100.048 81.375 99.8991 81.9086 99.6008 82.3196C99.3058 82.7339 98.9081 83.0372 98.4076 83.2294C97.9105 83.425 97.357 83.5227 96.7471 83.5227ZM96.7073 79.3267C97.178 79.3267 97.5757 79.219 97.9005 79.0036C98.2253 78.7881 98.4723 78.4782 98.6413 78.0739C98.8103 77.6695 98.8948 77.1856 98.8948 76.6222C98.8948 76.072 98.812 75.5864 98.6463 75.1655C98.4805 74.7446 98.2353 74.4148 97.9105 74.1761C97.5857 73.9375 97.1846 73.8182 96.7073 73.8182C96.2102 73.8182 95.7959 73.9441 95.4644 74.196C95.1363 74.4479 94.8894 74.786 94.7237 75.2102C94.5613 75.6345 94.4801 76.1051 94.4801 76.6222C94.4801 77.1525 94.5629 77.6214 94.7286 78.0291C94.8977 78.4335 95.1463 78.7517 95.4744 78.9837C95.8058 79.2124 96.2168 79.3267 96.7073 79.3267ZM105.538 80.6591C104.802 80.6591 104.167 80.4967 103.634 80.1719C103.103 79.8438 102.694 79.3864 102.406 78.7997C102.121 78.2098 101.978 77.5237 101.978 76.7415C101.978 75.9593 102.121 75.2699 102.406 74.6733C102.694 74.0734 103.095 73.6061 103.609 73.2713C104.126 72.9332 104.729 72.7642 105.418 72.7642C105.816 72.7642 106.209 72.8305 106.597 72.9631C106.984 73.0956 107.337 73.3111 107.656 73.6094C107.974 73.9044 108.227 74.2955 108.416 74.7827C108.605 75.2699 108.7 75.8698 108.7 76.5824V77.0795H102.813V76.0653H107.506C107.506 75.6345 107.42 75.25 107.248 74.9119C107.079 74.5739 106.837 74.3071 106.522 74.1115C106.21 73.916 105.843 73.8182 105.418 73.8182C104.951 73.8182 104.547 73.9342 104.205 74.1662C103.867 74.3949 103.607 74.6932 103.425 75.0611C103.242 75.429 103.151 75.8234 103.151 76.2443V76.9205C103.151 77.4972 103.251 77.986 103.45 78.3871C103.652 78.7848 103.932 79.0881 104.29 79.2969C104.648 79.5024 105.064 79.6051 105.538 79.6051C105.846 79.6051 106.124 79.562 106.373 79.4759C106.625 79.3864 106.842 79.2538 107.024 79.0781C107.206 78.8991 107.347 78.6771 107.447 78.4119L108.58 78.7301C108.461 79.1146 108.26 79.4527 107.979 79.7443C107.697 80.0327 107.349 80.258 106.935 80.4205C106.52 80.5795 106.055 80.6591 105.538 80.6591ZM111.798 75.9062V80.5H110.624V72.8636H111.758V74.0568H111.857C112.036 73.669 112.308 73.3575 112.673 73.1222C113.037 72.8835 113.508 72.7642 114.085 72.7642C114.602 72.7642 115.054 72.8703 115.442 73.0824C115.83 73.2912 116.131 73.6094 116.347 74.0369C116.562 74.4612 116.67 74.9981 116.67 75.6477V80.5H115.497V75.7273C115.497 75.1274 115.341 74.66 115.029 74.3253C114.718 73.9872 114.29 73.8182 113.747 73.8182C113.372 73.8182 113.037 73.8994 112.742 74.0618C112.451 74.2242 112.22 74.4612 112.051 74.7727C111.882 75.0843 111.798 75.4621 111.798 75.9062ZM122.056 80.6591C121.34 80.6591 120.724 80.4901 120.207 80.152C119.69 79.8139 119.292 79.3482 119.014 78.755C118.735 78.1617 118.596 77.4839 118.596 76.7216C118.596 75.946 118.738 75.2616 119.023 74.6683C119.312 74.0717 119.713 73.6061 120.227 73.2713C120.744 72.9332 121.347 72.7642 122.036 72.7642C122.573 72.7642 123.057 72.8636 123.488 73.0625C123.919 73.2614 124.272 73.5398 124.547 73.8977C124.822 74.2557 124.993 74.6733 125.059 75.1506H123.886C123.796 74.8026 123.597 74.4943 123.289 74.2259C122.984 73.9541 122.573 73.8182 122.056 73.8182C121.599 73.8182 121.198 73.9375 120.853 74.1761C120.512 74.4115 120.245 74.7446 120.053 75.1754C119.864 75.603 119.769 76.1051 119.769 76.6818C119.769 77.2718 119.862 77.7855 120.048 78.223C120.237 78.6605 120.502 79.0002 120.843 79.2422C121.188 79.4841 121.592 79.6051 122.056 79.6051C122.361 79.6051 122.638 79.5521 122.886 79.446C123.135 79.34 123.345 79.1875 123.518 78.9886C123.69 78.7898 123.813 78.5511 123.886 78.2727H125.059C124.993 78.7235 124.829 79.1295 124.567 79.4908C124.308 79.8487 123.965 80.1338 123.538 80.3459C123.113 80.5547 122.62 80.6591 122.056 80.6591ZM130.116 80.6591C129.38 80.6591 128.745 80.4967 128.212 80.1719C127.681 79.8438 127.272 79.3864 126.984 78.7997C126.699 78.2098 126.556 77.5237 126.556 76.7415C126.556 75.9593 126.699 75.2699 126.984 74.6733C127.272 74.0734 127.673 73.6061 128.187 73.2713C128.704 72.9332 129.307 72.7642 129.997 72.7642C130.394 72.7642 130.787 72.8305 131.175 72.9631C131.563 73.0956 131.916 73.3111 132.234 73.6094C132.552 73.9044 132.806 74.2955 132.994 74.7827C133.183 75.2699 133.278 75.8698 133.278 76.5824V77.0795H127.391V76.0653H132.085C132.085 75.6345 131.998 75.25 131.826 74.9119C131.657 74.5739 131.415 74.3071 131.1 74.1115C130.789 73.916 130.421 73.8182 129.997 73.8182C129.529 73.8182 129.125 73.9342 128.783 74.1662C128.445 74.3949 128.185 74.6932 128.003 75.0611C127.821 75.429 127.73 75.8234 127.73 76.2443V76.9205C127.73 77.4972 127.829 77.986 128.028 78.3871C128.23 78.7848 128.51 79.0881 128.868 79.2969C129.226 79.5024 129.642 79.6051 130.116 79.6051C130.424 79.6051 130.703 79.562 130.951 79.4759C131.203 79.3864 131.42 79.2538 131.602 79.0781C131.785 78.8991 131.926 78.6771 132.025 78.4119L133.158 78.7301C133.039 79.1146 132.839 79.4527 132.557 79.7443C132.275 80.0327 131.927 80.258 131.513 80.4205C131.099 80.5795 130.633 80.6591 130.116 80.6591ZM142.681 72.8636V73.858H138.564V72.8636H142.681ZM139.797 80.5V71.8097C139.797 71.3722 139.9 71.0076 140.105 70.7159C140.311 70.4242 140.578 70.2055 140.906 70.0597C141.234 69.9138 141.58 69.8409 141.945 69.8409C142.233 69.8409 142.469 69.8641 142.651 69.9105C142.833 69.9569 142.969 70 143.059 70.0398L142.72 71.054C142.661 71.0341 142.578 71.0092 142.472 70.9794C142.369 70.9496 142.233 70.9347 142.064 70.9347C141.676 70.9347 141.396 71.0324 141.224 71.228C141.055 71.4235 140.97 71.7102 140.97 72.0881V80.5H139.797ZM147.253 80.6591C146.563 80.6591 145.959 80.495 145.438 80.1669C144.921 79.8388 144.517 79.3797 144.225 78.7898C143.937 78.1998 143.793 77.5104 143.793 76.7216C143.793 75.9261 143.937 75.2318 144.225 74.6385C144.517 74.0452 144.921 73.5845 145.438 73.2564C145.959 72.9283 146.563 72.7642 147.253 72.7642C147.942 72.7642 148.545 72.9283 149.063 73.2564C149.583 73.5845 149.987 74.0452 150.276 74.6385C150.567 75.2318 150.713 75.9261 150.713 76.7216C150.713 77.5104 150.567 78.1998 150.276 78.7898C149.987 79.3797 149.583 79.8388 149.063 80.1669C148.545 80.495 147.942 80.6591 147.253 80.6591ZM147.253 79.6051C147.777 79.6051 148.207 79.4709 148.545 79.2024C148.884 78.9339 149.134 78.581 149.296 78.1435C149.459 77.706 149.54 77.232 149.54 76.7216C149.54 76.2112 149.459 75.7356 149.296 75.2947C149.134 74.8539 148.884 74.4976 148.545 74.2259C148.207 73.9541 147.777 73.8182 147.253 73.8182C146.729 73.8182 146.298 73.9541 145.96 74.2259C145.622 74.4976 145.372 74.8539 145.21 75.2947C145.047 75.7356 144.966 76.2112 144.966 76.7216C144.966 77.232 145.047 77.706 145.21 78.1435C145.372 78.581 145.622 78.9339 145.96 79.2024C146.298 79.4709 146.729 79.6051 147.253 79.6051ZM152.644 80.5V72.8636H153.778V74.017H153.857C153.996 73.6392 154.248 73.3326 154.613 73.0973C154.977 72.862 155.388 72.7443 155.846 72.7443C155.932 72.7443 156.04 72.746 156.169 72.7493C156.298 72.7526 156.396 72.7576 156.462 72.7642V73.9574C156.423 73.9474 156.331 73.9325 156.189 73.9126C156.05 73.8894 155.902 73.8778 155.746 73.8778C155.375 73.8778 155.044 73.9557 154.752 74.1115C154.464 74.264 154.235 74.4761 154.066 74.7479C153.9 75.0163 153.817 75.3229 153.817 75.6676V80.5H152.644ZM163.801 80.5L161.474 72.8636H162.707L164.358 78.7102H164.437L166.068 72.8636H167.321L168.931 78.6903H169.011L170.661 72.8636H171.894L169.568 80.5H168.414L166.744 74.6335H166.625L164.954 80.5H163.801ZM176.528 80.6591C175.792 80.6591 175.157 80.4967 174.623 80.1719C174.093 79.8438 173.684 79.3864 173.395 78.7997C173.11 78.2098 172.968 77.5237 172.968 76.7415C172.968 75.9593 173.11 75.2699 173.395 74.6733C173.684 74.0734 174.085 73.6061 174.599 73.2713C175.116 72.9332 175.719 72.7642 176.408 72.7642C176.806 72.7642 177.199 72.8305 177.586 72.9631C177.974 73.0956 178.327 73.3111 178.645 73.6094C178.964 73.9044 179.217 74.2955 179.406 74.7827C179.595 75.2699 179.689 75.8698 179.689 76.5824V77.0795H173.803V76.0653H178.496C178.496 75.6345 178.41 75.25 178.238 74.9119C178.069 74.5739 177.827 74.3071 177.512 74.1115C177.2 73.916 176.832 73.8182 176.408 73.8182C175.941 73.8182 175.537 73.9342 175.195 74.1662C174.857 74.3949 174.597 74.6932 174.415 75.0611C174.232 75.429 174.141 75.8234 174.141 76.2443V76.9205C174.141 77.4972 174.241 77.986 174.439 78.3871C174.642 78.7848 174.922 79.0881 175.28 79.2969C175.638 79.5024 176.054 79.6051 176.528 79.6051C176.836 79.6051 177.114 79.562 177.363 79.4759C177.615 79.3864 177.832 79.2538 178.014 79.0781C178.196 78.8991 178.337 78.6771 178.437 78.4119L179.57 78.7301C179.451 79.1146 179.25 79.4527 178.969 79.7443C178.687 80.0327 178.339 80.258 177.925 80.4205C177.51 80.5795 177.045 80.6591 176.528 80.6591ZM181.773 80.5V70.3182H182.947V74.0767H183.046C183.132 73.9441 183.252 73.7751 183.404 73.5696C183.56 73.3608 183.782 73.1752 184.07 73.0128C184.362 72.8471 184.756 72.7642 185.253 72.7642C185.896 72.7642 186.463 72.925 186.954 73.2464C187.444 73.5679 187.827 74.0237 188.102 74.6136C188.377 75.2036 188.515 75.8996 188.515 76.7017C188.515 77.5104 188.377 78.2114 188.102 78.8047C187.827 79.3946 187.446 79.852 186.959 80.1768C186.471 80.4983 185.91 80.6591 185.273 80.6591C184.783 80.6591 184.39 80.5779 184.095 80.4155C183.8 80.2498 183.573 80.0625 183.414 79.8537C183.255 79.6416 183.132 79.4659 183.046 79.3267H182.907V80.5H181.773ZM182.927 76.6818C182.927 77.2585 183.011 77.7673 183.18 78.2081C183.349 78.6456 183.596 78.9886 183.921 79.2372C184.246 79.4825 184.644 79.6051 185.114 79.6051C185.605 79.6051 186.014 79.4759 186.342 79.2173C186.674 78.9555 186.922 78.6042 187.088 78.1634C187.257 77.7192 187.342 77.2254 187.342 76.6818C187.342 76.1449 187.259 75.661 187.093 75.2301C186.931 74.7959 186.684 74.4529 186.352 74.201C186.024 73.9458 185.611 73.8182 185.114 73.8182C184.637 73.8182 184.236 73.9392 183.911 74.1811C183.586 74.4197 183.341 74.7545 183.175 75.1854C183.01 75.6129 182.927 76.1117 182.927 76.6818ZM196.774 80.679C196.29 80.679 195.851 80.5878 195.457 80.4055C195.062 80.2199 194.749 79.9531 194.517 79.6051C194.285 79.2538 194.169 78.8295 194.169 78.3324C194.169 77.8949 194.255 77.5402 194.428 77.2685C194.6 76.9934 194.83 76.7779 195.119 76.6222C195.407 76.4664 195.725 76.3504 196.073 76.2741C196.425 76.1946 196.778 76.1316 197.132 76.0852C197.596 76.0256 197.972 75.9808 198.261 75.951C198.552 75.9179 198.765 75.8632 198.897 75.7869C199.033 75.7107 199.101 75.5781 199.101 75.3892V75.3494C199.101 74.8589 198.967 74.4777 198.698 74.206C198.433 73.9342 198.03 73.7983 197.49 73.7983C196.93 73.7983 196.491 73.9209 196.173 74.1662C195.854 74.4115 195.631 74.6733 195.501 74.9517L194.388 74.554C194.587 74.09 194.852 73.7287 195.183 73.4702C195.518 73.2083 195.883 73.026 196.277 72.9233C196.675 72.8172 197.066 72.7642 197.45 72.7642C197.696 72.7642 197.977 72.794 198.296 72.8537C198.617 72.91 198.927 73.0277 199.225 73.2067C199.527 73.3857 199.777 73.6558 199.976 74.017C200.175 74.3783 200.274 74.8622 200.274 75.4688V80.5H199.101V79.4659H199.041C198.962 79.6316 198.829 79.8089 198.644 79.9979C198.458 80.1868 198.211 80.3475 197.903 80.4801C197.595 80.6127 197.218 80.679 196.774 80.679ZM196.953 79.625C197.417 79.625 197.808 79.5339 198.126 79.3516C198.448 79.1693 198.69 78.9339 198.852 78.6456C199.018 78.3572 199.101 78.054 199.101 77.7358V76.6619C199.051 76.7216 198.942 76.7763 198.773 76.826C198.607 76.8724 198.415 76.9138 198.196 76.9503C197.981 76.9834 197.77 77.0133 197.565 77.0398C197.363 77.063 197.198 77.0829 197.073 77.0994C196.768 77.1392 196.483 77.2038 196.217 77.2933C195.956 77.3795 195.743 77.5104 195.581 77.6861C195.422 77.8584 195.342 78.0937 195.342 78.392C195.342 78.7997 195.493 79.108 195.795 79.3168C196.1 79.5223 196.486 79.625 196.953 79.625ZM203.729 75.9062V80.5H202.556V72.8636H203.689V74.0568H203.789C203.968 73.669 204.239 73.3575 204.604 73.1222C204.969 72.8835 205.439 72.7642 206.016 72.7642C206.533 72.7642 206.985 72.8703 207.373 73.0824C207.761 73.2912 208.063 73.6094 208.278 74.0369C208.493 74.4612 208.601 74.9981 208.601 75.6477V80.5H207.428V75.7273C207.428 75.1274 207.272 74.66 206.961 74.3253C206.649 73.9872 206.221 73.8182 205.678 73.8182C205.303 73.8182 204.969 73.8994 204.674 74.0618C204.382 74.2242 204.152 74.4612 203.983 74.7727C203.814 75.0843 203.729 75.4621 203.729 75.9062ZM213.769 80.6591C213.132 80.6591 212.571 80.4983 212.083 80.1768C211.596 79.852 211.215 79.3946 210.94 78.8047C210.665 78.2114 210.527 77.5104 210.527 76.7017C210.527 75.8996 210.665 75.2036 210.94 74.6136C211.215 74.0237 211.598 73.5679 212.088 73.2464C212.579 72.925 213.146 72.7642 213.789 72.7642C214.286 72.7642 214.679 72.8471 214.967 73.0128C215.259 73.1752 215.481 73.3608 215.633 73.5696C215.789 73.7751 215.91 73.9441 215.996 74.0767H216.095V70.3182H217.269V80.5H216.135V79.3267H215.996C215.91 79.4659 215.787 79.6416 215.628 79.8537C215.469 80.0625 215.242 80.2498 214.947 80.4155C214.652 80.5779 214.259 80.6591 213.769 80.6591ZM213.928 79.6051C214.398 79.6051 214.796 79.4825 215.121 79.2372C215.446 78.9886 215.693 78.6456 215.862 78.2081C216.031 77.7673 216.115 77.2585 216.115 76.6818C216.115 76.1117 216.032 75.6129 215.867 75.1854C215.701 74.7545 215.456 74.4197 215.131 74.1811C214.806 73.9392 214.405 73.8182 213.928 73.8182C213.431 73.8182 213.016 73.9458 212.685 74.201C212.357 74.4529 212.11 74.7959 211.944 75.2301C211.782 75.661 211.701 76.1449 211.701 76.6818C211.701 77.2254 211.783 77.7192 211.949 78.1634C212.118 78.6042 212.367 78.9555 212.695 79.2173C213.026 79.4759 213.437 79.6051 213.928 79.6051ZM223.798 80.5V72.8636H224.932V74.0568H225.031C225.19 73.6491 225.447 73.3326 225.802 73.1072C226.156 72.8786 226.582 72.7642 227.079 72.7642C227.583 72.7642 228.002 72.8786 228.337 73.1072C228.675 73.3326 228.939 73.6491 229.128 74.0568H229.207C229.403 73.6624 229.696 73.3492 230.087 73.1172C230.478 72.8819 230.947 72.7642 231.494 72.7642C232.177 72.7642 232.735 72.978 233.169 73.4055C233.604 73.8298 233.821 74.491 233.821 75.3892V80.5H232.647V75.3892C232.647 74.8258 232.493 74.4231 232.185 74.1811C231.877 73.9392 231.514 73.8182 231.096 73.8182C230.559 73.8182 230.143 73.9806 229.848 74.3054C229.553 74.6269 229.406 75.0346 229.406 75.5284V80.5H228.213V75.2699C228.213 74.8357 228.072 74.486 227.79 74.2209C227.508 73.9524 227.146 73.8182 226.701 73.8182C226.396 73.8182 226.111 73.8994 225.846 74.0618C225.584 74.2242 225.372 74.4496 225.21 74.7379C225.051 75.023 224.971 75.3527 224.971 75.7273V80.5H223.798ZM239.208 80.6591C238.519 80.6591 237.914 80.495 237.394 80.1669C236.877 79.8388 236.472 79.3797 236.181 78.7898C235.892 78.1998 235.748 77.5104 235.748 76.7216C235.748 75.9261 235.892 75.2318 236.181 74.6385C236.472 74.0452 236.877 73.5845 237.394 73.2564C237.914 72.9283 238.519 72.7642 239.208 72.7642C239.898 72.7642 240.501 72.9283 241.018 73.2564C241.538 73.5845 241.943 74.0452 242.231 74.6385C242.523 75.2318 242.668 75.9261 242.668 76.7216C242.668 77.5104 242.523 78.1998 242.231 78.7898C241.943 79.3797 241.538 79.8388 241.018 80.1669C240.501 80.495 239.898 80.6591 239.208 80.6591ZM239.208 79.6051C239.732 79.6051 240.163 79.4709 240.501 79.2024C240.839 78.9339 241.089 78.581 241.252 78.1435C241.414 77.706 241.495 77.232 241.495 76.7216C241.495 76.2112 241.414 75.7356 241.252 75.2947C241.089 74.8539 240.839 74.4976 240.501 74.2259C240.163 73.9541 239.732 73.8182 239.208 73.8182C238.685 73.8182 238.254 73.9541 237.916 74.2259C237.578 74.4976 237.327 74.8539 237.165 75.2947C237.003 75.7356 236.921 76.2112 236.921 76.7216C236.921 77.232 237.003 77.706 237.165 78.1435C237.327 78.581 237.578 78.9339 237.916 79.2024C238.254 79.4709 238.685 79.6051 239.208 79.6051ZM244.759 80.5V70.3182H245.932V74.0767H246.031C246.117 73.9441 246.237 73.7751 246.389 73.5696C246.545 73.3608 246.767 73.1752 247.055 73.0128C247.347 72.8471 247.742 72.7642 248.239 72.7642C248.882 72.7642 249.448 72.925 249.939 73.2464C250.43 73.5679 250.812 74.0237 251.087 74.6136C251.363 75.2036 251.5 75.8996 251.5 76.7017C251.5 77.5104 251.363 78.2114 251.087 78.8047C250.812 79.3946 250.431 79.852 249.944 80.1768C249.457 80.4983 248.895 80.6591 248.259 80.6591C247.768 80.6591 247.375 80.5779 247.08 80.4155C246.785 80.2498 246.558 80.0625 246.399 79.8537C246.24 79.6416 246.117 79.4659 246.031 79.3267H245.892V80.5H244.759ZM245.912 76.6818C245.912 77.2585 245.997 77.7673 246.166 78.2081C246.335 78.6456 246.581 78.9886 246.906 79.2372C247.231 79.4825 247.629 79.6051 248.099 79.6051C248.59 79.6051 248.999 79.4759 249.327 79.2173C249.659 78.9555 249.907 78.6042 250.073 78.1634C250.242 77.7192 250.327 77.2254 250.327 76.6818C250.327 76.1449 250.244 75.661 250.078 75.2301C249.916 74.7959 249.669 74.4529 249.337 74.201C249.009 73.9458 248.597 73.8182 248.099 73.8182C247.622 73.8182 247.221 73.9392 246.896 74.1811C246.572 74.4197 246.326 74.7545 246.161 75.1854C245.995 75.6129 245.912 76.1117 245.912 76.6818ZM253.435 80.5V72.8636H254.608V80.5H253.435ZM254.031 71.5909C253.803 71.5909 253.605 71.513 253.44 71.3572C253.277 71.2015 253.196 71.0142 253.196 70.7955C253.196 70.5767 253.277 70.3894 253.44 70.2337C253.605 70.0779 253.803 70 254.031 70C254.26 70 254.456 70.0779 254.618 70.2337C254.784 70.3894 254.867 70.5767 254.867 70.7955C254.867 71.0142 254.784 71.2015 254.618 71.3572C254.456 71.513 254.26 71.5909 254.031 71.5909ZM258.07 70.3182V80.5H256.897V70.3182H258.07ZM263.561 80.6591C262.825 80.6591 262.191 80.4967 261.657 80.1719C261.127 79.8438 260.717 79.3864 260.429 78.7997C260.144 78.2098 260.001 77.5237 260.001 76.7415C260.001 75.9593 260.144 75.2699 260.429 74.6733C260.717 74.0734 261.118 73.6061 261.632 73.2713C262.149 72.9332 262.752 72.7642 263.442 72.7642C263.839 72.7642 264.232 72.8305 264.62 72.9631C265.008 73.0956 265.361 73.3111 265.679 73.6094C265.997 73.9044 266.251 74.2955 266.44 74.7827C266.629 75.2699 266.723 75.8698 266.723 76.5824V77.0795H260.837V76.0653H265.53C265.53 75.6345 265.444 75.25 265.271 74.9119C265.102 74.5739 264.86 74.3071 264.545 74.1115C264.234 73.916 263.866 73.8182 263.442 73.8182C262.974 73.8182 262.57 73.9342 262.229 74.1662C261.891 74.3949 261.63 74.6932 261.448 75.0611C261.266 75.429 261.175 75.8234 261.175 76.2443V76.9205C261.175 77.4972 261.274 77.986 261.473 78.3871C261.675 78.7848 261.955 79.0881 262.313 79.2969C262.671 79.5024 263.087 79.6051 263.561 79.6051C263.869 79.6051 264.148 79.562 264.396 79.4759C264.648 79.3864 264.865 79.2538 265.048 79.0781C265.23 78.8991 265.371 78.6771 265.47 78.4119L266.604 78.7301C266.484 79.1146 266.284 79.4527 266.002 79.7443C265.72 80.0327 265.372 80.258 264.958 80.4205C264.544 80.5795 264.078 80.6591 263.561 80.6591Z" fill="white"/>
</svg>
