<svg width="77" height="80" viewBox="0 0 77 80" fill="none" xmlns="http://www.w3.org/2000/svg">
<path fill-rule="evenodd" clip-rule="evenodd" d="M12.9404 6.15427C20.1508 2.50699 29.0293 0 38.5773 0C47.6375 0 56.8264 2.39234 64.0597 6.0512C65.3372 6.69739 65.8486 8.25629 65.2021 9.53309C64.5556 10.8099 62.9959 11.3211 61.7184 10.6749C55.1806 7.36784 46.7907 5.18215 38.5773 5.18215C29.924 5.18215 21.8424 7.45933 15.2817 10.778C14.0042 11.4242 12.4445 10.913 11.798 9.63616C11.1515 8.35936 11.6629 6.80046 12.9404 6.15427ZM17.4489 14.0547C23.7066 11.1351 31.7446 9.58562 38.5476 9.58562C45.3613 9.58562 53.1991 11.1392 59.4481 14.0547C66.4062 17.3011 72.2354 22.0164 76.2335 27.5664C77.0701 28.7277 76.8063 30.347 75.6444 31.1831C74.4825 32.0193 72.8624 31.7557 72.0258 30.5943C68.5989 25.8372 63.4969 21.6627 57.255 18.7505C51.7656 16.1893 44.6883 14.7678 38.5476 14.7678C32.396 14.7678 25.1227 16.1934 19.642 18.7505C13.6693 21.5371 8.317 26.0206 4.97992 30.6896C4.14768 31.854 2.52857 32.1236 1.36354 31.2918C0.198513 30.46 -0.0712595 28.8417 0.760986 27.6773C4.64264 22.2464 10.708 17.1997 17.4489 14.0547ZM38.2173 18.9652C51.5702 18.8369 63.222 25.7094 69.1353 35.583C72.239 40.7654 73.3189 45.9752 73.3189 50.4161C73.3189 57.9789 66.4106 62.6959 60.2078 62.6959C57.1012 62.6959 53.8009 61.8654 51.1852 59.8719C48.4898 57.8178 46.7086 54.6616 46.5822 50.4946C46.5066 47.9992 45.3646 46.3467 43.7974 45.2399C42.144 44.0723 40.0046 43.5246 38.2422 43.5246C33.448 43.5246 30.1097 47.05 30.1097 50.4161C30.1097 53.2227 30.9913 57.1634 32.154 59.7718C33.3325 62.4155 35.4465 65.4935 37.5067 67.3569L37.5313 67.3792L37.5554 67.4021C40.9282 70.6135 45.1455 73.4741 51.3301 74.882C52.7261 75.1998 53.6 76.5885 53.282 77.9838C52.9641 79.379 51.5746 80.2525 50.1786 79.9347C42.9037 78.2786 37.8879 74.8705 34.0027 71.1766C31.3333 68.7533 28.8362 65.0623 27.418 61.8808C25.9796 58.6541 24.9248 53.9976 24.9248 50.4161C24.9248 43.6812 31.1194 38.3425 38.2422 38.3425C40.9143 38.3425 44.1373 39.1348 46.7894 41.0077C49.5276 42.9415 51.6341 46.0303 51.7647 50.3376C51.8446 52.9733 52.8993 54.6615 54.3289 55.751C55.8382 56.9012 57.9519 57.5137 60.2078 57.5137C64.3246 57.5137 68.1341 54.3972 68.1341 50.4161C68.1341 46.8175 67.2619 42.5447 64.6865 38.2446C59.7448 29.9932 49.8305 24.036 38.2672 24.1471C28.2333 24.2436 17.5635 28.9798 12.1106 38.136C9.78626 42.0388 8.62029 46.4989 8.76168 51.1622C8.95626 57.58 9.89234 60.2735 11.5862 64.755C12.0922 66.0936 11.4166 67.5888 10.0772 68.0945C8.73786 68.6002 7.24191 67.925 6.73593 66.5863C4.92354 61.7913 3.79713 58.5068 3.57921 51.3192C3.4081 45.6754 4.82338 40.2406 7.65529 35.4854C14.2336 24.4396 26.8013 19.0749 38.2173 18.9652ZM14.303 49.9796C14.3186 38.0334 25.8209 28.6538 38.2422 28.6538C50.5949 28.6538 62.594 37.1553 62.594 50.7253C62.594 52.1563 61.4333 53.3164 60.0016 53.3164C58.5698 53.3164 57.4091 52.1563 57.4091 50.7253C57.4091 40.7951 48.577 33.8359 38.2422 33.8359C27.9846 33.8359 19.4878 41.5534 19.4878 50.0038V50.0275L19.4874 50.0512C19.4011 54.7672 20.1522 59.2667 22.6081 64.0815C25.1139 68.9942 28.1264 72.3315 30.8802 74.7544C31.9549 75.6999 32.0592 77.3372 31.1132 78.4113C30.1671 79.4854 28.529 79.5897 27.4543 78.6441C24.3065 75.8746 20.8456 72.0358 17.9889 66.4352C15.0865 60.7449 14.2068 55.3841 14.303 49.9796ZM38.2422 47.825C39.674 47.825 40.8347 48.9851 40.8347 50.4161C40.8347 53.2143 41.6026 55.8658 43.0652 58.3965C44.4726 60.8318 46.3038 62.5884 48.8162 64.1106C52.4729 66.1042 54.9829 66.7854 58.801 66.6879L58.8188 66.6875L58.8366 66.6872C60.3444 66.6694 62.1131 66.5449 63.5089 66.3016C64.9194 66.0557 66.2622 66.9992 66.5082 68.409C66.7542 69.8187 65.8102 71.1608 64.3997 71.4067C62.6537 71.711 60.5998 71.8481 58.9156 71.8688C54.0436 71.9907 50.6346 71.0122 46.2791 68.6303L46.2313 68.6042L46.1847 68.576C43.014 66.6649 40.4928 64.306 38.5755 60.9885C36.7049 57.7516 35.6498 54.2144 35.6498 50.4161C35.6498 48.9851 36.8105 47.825 38.2422 47.825Z" fill="#141415"/>
</svg>
